<?xml version="1.0" standalone="no"?>
<!DOCTYPE svg PUBLIC "-//W3C//DTD SVG 20010904//EN"
 "http://www.w3.org/TR/2001/REC-SVG-20010904/DTD/svg10.dtd">
<svg version="1.0" xmlns="http://www.w3.org/2000/svg"
 width="3264.000000pt" height="3264.000000pt" viewBox="0 0 3264.000000 3264.000000"
 preserveAspectRatio="xMidYMid meet">
<metadata>
Created by potrace 1.14, written by Peter Selinger 2001-2017
</metadata>
<g transform="translate(0.000000,3264.000000) scale(0.100000,-0.100000)"
fill="#000000" stroke="none">
<path d="M4943 18388 c2 -8710 3 -9241 20 -9378 71 -596 203 -1063 426 -1512
514 -1034 1452 -1743 2636 -1993 198 -42 466 -81 644 -95 74 -5 332 -10 573
-10 l438 0 -2 8763 c-2 4819 -4 9818 -6 11110 l-2 2347 -2365 0 -2365 0 3
-9232z"/>
<path d="M26578 19688 c3 -14 2 -19 -6 -14 -8 5 -12 -2 -13 -21 0 -16 -3 -22
-6 -13 -4 8 -12 21 -20 28 -11 11 -13 9 -14 -15 -2 -23 -3 -20 -9 12 -4 22 -8
32 -9 22 0 -10 -5 -15 -11 -12 -6 4 -10 -6 -11 -22 0 -16 -3 -22 -6 -13 -4 8
-12 21 -20 28 -11 11 -13 9 -14 -15 -2 -23 -3 -20 -9 12 -4 22 -8 32 -9 22 0
-10 -5 -15 -11 -12 -6 4 -10 -6 -11 -22 0 -16 -3 -22 -6 -13 -4 8 -12 21 -20
28 -11 11 -13 9 -14 -15 -2 -23 -3 -20 -9 12 -4 22 -8 32 -9 22 0 -10 -5 -15
-11 -12 -6 4 -10 -6 -11 -22 0 -16 -3 -22 -6 -13 -4 8 -12 21 -20 28 -11 11
-13 9 -14 -15 l-1 -28 -7 30 c-3 17 -11 30 -16 30 -5 0 -13 -13 -16 -30 -4
-16 -7 -24 -8 -17 -2 21 -32 46 -56 48 -18 1 -21 -4 -18 -30 2 -17 0 -24 -4
-16 -3 8 -14 22 -23 32 -16 17 -16 16 -13 -14 2 -18 0 -26 -4 -18 -3 8 -14 22
-23 32 -16 17 -16 16 -13 -14 2 -18 0 -26 -4 -18 -3 8 -14 22 -23 32 -16 17
-16 16 -13 -14 3 -27 1 -29 -6 -13 -7 14 -10 15 -10 5 -1 -13 -2 -13 -11 0 -8
12 -10 12 -11 -5 0 -14 -2 -16 -6 -5 -3 8 -14 22 -23 32 -16 17 -16 16 -14
-14 2 -18 1 -24 -2 -14 -5 15 -8 16 -15 5 -7 -12 -9 -12 -10 1 0 10 -3 8 -9
-5 l-9 -20 0 20 c-1 17 -3 17 -11 5 -8 -12 -10 -11 -10 7 0 12 -4 24 -8 27 -5
3 -7 -9 -5 -27 3 -26 1 -28 -6 -12 -7 14 -10 15 -10 5 -1 -13 -3 -13 -10 -1
-7 11 -10 10 -14 -5 -4 -18 -5 -18 -6 1 -1 17 -3 18 -11 5 -8 -12 -10 -11 -10
7 0 12 -4 24 -8 27 -5 3 -7 -9 -5 -27 3 -26 1 -28 -6 -12 -7 14 -10 15 -10 5
-1 -13 -3 -13 -10 -1 -7 11 -10 10 -14 -5 -4 -18 -5 -18 -6 1 -1 17 -3 18 -11
5 -8 -12 -10 -11 -10 7 0 12 -4 24 -8 27 -5 3 -7 -9 -5 -27 2 -29 2 -30 -6 -7
-8 21 -9 22 -10 5 -1 -16 -3 -17 -10 -6 -7 11 -10 10 -14 -5 -4 -18 -5 -18 -6
-1 -1 17 -2 18 -18 1 -17 -16 -18 -16 -24 7 l-7 24 -2 -25 c-1 -23 -2 -23 -10
-5 l-9 20 -1 -20 -1 -20 -9 20 c-6 15 -9 16 -9 4 -1 -9 -8 -16 -16 -16 -8 0
-15 7 -16 16 0 13 -2 12 -8 -2 -4 -10 -11 -18 -16 -18 -5 0 -12 8 -16 18 -6
14 -8 15 -8 2 -1 -9 -8 -16 -16 -16 -8 0 -15 7 -16 16 0 13 -2 12 -8 -2 -4
-10 -11 -18 -16 -18 -5 0 -12 8 -16 18 -6 14 -8 15 -8 2 -1 -9 -8 -16 -16 -16
-8 0 -15 7 -16 16 0 14 -1 14 -7 1 -10 -21 -32 -23 -33 -2 0 14 -2 14 -9 -3
-5 -11 -9 -15 -9 -10 -1 6 -5 4 -10 -4 -8 -12 -12 -12 -25 -2 -9 8 -16 10 -17
5 0 -5 -4 0 -9 11 -8 18 -9 18 -9 2 -1 -10 -5 -15 -11 -12 -5 3 -10 2 -10 -3
0 -6 -7 -12 -15 -16 -8 -3 -14 -2 -14 2 3 19 -2 25 -10 13 -8 -12 -12 -12 -25
-2 -9 8 -16 9 -16 3 0 -5 -7 -12 -15 -16 -8 -3 -14 -2 -14 2 3 19 -2 25 -10
13 -8 -12 -12 -12 -25 -2 -9 8 -16 9 -16 3 0 -5 -7 -13 -16 -16 -14 -5 -15 -4
-4 8 6 9 10 21 7 28 -3 8 -6 6 -6 -5 -1 -10 -5 -15 -11 -12 -6 4 -10 -6 -11
-22 0 -26 -1 -26 -9 -7 -9 24 -30 41 -30 26 0 -6 -7 -13 -16 -16 -14 -5 -15
-4 -4 8 6 9 10 21 7 28 -3 8 -6 6 -6 -5 -1 -10 -5 -15 -11 -12 -6 4 -10 -5
-10 -21 0 -15 -3 -24 -7 -21 -3 4 -6 20 -5 37 0 16 -3 32 -8 35 -4 3 -6 -5 -2
-17 3 -14 2 -19 -6 -14 -7 4 -12 3 -12 -2 0 -6 -7 -13 -16 -16 -14 -5 -15 -4
-4 8 6 9 10 21 7 28 -3 8 -6 6 -6 -5 -1 -10 -5 -15 -11 -12 -6 4 -10 -5 -10
-21 0 -15 -3 -24 -7 -21 -3 4 -6 20 -5 37 0 16 -3 32 -8 35 -4 3 -6 -5 -2 -17
3 -14 2 -19 -6 -14 -7 4 -12 3 -12 -2 0 -6 -7 -12 -15 -16 -12 -4 -13 -2 -3
14 10 15 10 22 1 31 -9 9 -10 6 -6 -11 4 -16 3 -21 -5 -16 -8 5 -12 -2 -12
-20 0 -15 -3 -24 -7 -21 -3 4 -6 20 -5 37 0 16 -3 32 -8 35 -4 3 -6 -5 -2 -17
3 -14 2 -19 -6 -14 -8 5 -12 -2 -13 -21 -1 -17 -3 -21 -6 -10 -2 9 -9 14 -14
11 -6 -3 -5 3 3 15 9 16 10 23 1 32 -9 9 -10 6 -6 -11 4 -16 3 -21 -5 -16 -8
5 -12 -2 -13 -21 -1 -17 -3 -21 -6 -10 -2 9 -9 14 -14 11 -6 -3 -5 3 3 15 9
16 10 23 1 32 -9 9 -10 6 -6 -11 4 -16 3 -21 -5 -16 -8 5 -12 -2 -13 -21 -1
-17 -3 -21 -6 -10 -2 9 -9 14 -14 11 -6 -3 -5 3 3 15 9 16 10 23 1 32 -9 9
-10 6 -6 -11 4 -16 3 -21 -5 -16 -8 5 -12 -2 -13 -21 -1 -17 -3 -21 -6 -10 -2
9 -9 14 -14 11 -6 -3 -5 3 3 15 9 16 10 23 1 32 -9 9 -10 6 -6 -11 4 -16 3
-21 -5 -16 -8 5 -12 -2 -13 -21 -1 -17 -3 -21 -6 -10 -2 9 -9 14 -14 11 -6 -3
-5 3 3 15 9 16 10 23 1 32 -9 9 -10 6 -6 -11 4 -16 3 -21 -5 -16 -8 5 -12 -2
-13 -21 -1 -17 -3 -21 -6 -10 -2 9 -9 14 -14 11 -6 -3 -5 3 3 15 9 16 10 23 1
32 -9 9 -10 6 -6 -11 4 -16 3 -21 -5 -16 -8 5 -12 -2 -13 -21 -1 -17 -3 -21
-6 -10 -2 9 -9 14 -14 11 -6 -3 -5 3 3 15 9 16 10 23 1 32 -9 9 -10 6 -6 -11
4 -15 2 -21 -4 -17 -6 4 -14 -7 -18 -26 -3 -17 -9 -2243 -12 -4944 l-5 -4913
1681 0 1681 0 -1 4953 c-1 2723 -4 4963 -8 4976 -3 13 -14 25 -23 27 -11 1
-15 -3 -11 -12 3 -9 -1 -14 -12 -14 -10 0 -15 5 -12 13 3 9 -5 13 -28 13 -21
0 -31 -5 -28 -12 2 -6 -3 -14 -13 -18 -12 -5 -15 -2 -12 12 4 14 -1 18 -27 18
-21 0 -31 -5 -28 -12 2 -6 -3 -14 -13 -18 -12 -5 -15 -2 -12 12 3 11 0 19 -7
19 -7 0 -10 -10 -7 -26 5 -24 4 -25 -12 -8 -10 9 -14 22 -10 28 4 8 3 9 -4 5
-7 -4 -12 -13 -12 -20 0 -7 -7 -13 -16 -13 -9 0 -14 7 -11 17 2 9 -1 17 -8 17
-7 0 -10 -10 -7 -26 5 -24 4 -25 -12 -8 -10 9 -15 21 -12 25 3 5 -1 9 -8 9 -8
0 -11 -8 -8 -20 3 -14 1 -18 -6 -13 -7 4 -12 2 -12 -3 0 -6 -5 -11 -11 -11
-15 0 -41 28 -35 38 3 5 -1 9 -8 9 -8 0 -11 -8 -8 -20 3 -14 1 -18 -6 -13 -7
4 -12 2 -12 -3 0 -6 -5 -11 -11 -11 -15 0 -41 28 -35 38 3 5 -1 9 -8 9 -8 0
-11 -8 -8 -20 3 -14 1 -18 -6 -13 -7 4 -12 2 -12 -3 0 -6 -7 -11 -15 -11 -8 0
-15 6 -15 13 0 8 -4 7 -11 -3 -8 -12 -10 -10 -6 11 2 15 -1 26 -8 26 -7 0 -10
-9 -7 -20 3 -14 1 -18 -6 -13 -7 4 -12 2 -12 -3 0 -6 -7 -11 -15 -11 -8 0 -15
6 -15 13 0 8 -4 7 -10 -3 -8 -12 -10 -11 -10 7 0 12 -4 24 -9 27 -5 4 -7 -4
-3 -16 3 -14 2 -19 -6 -14 -7 4 -12 2 -12 -3 0 -15 -30 -14 -31 2 -1 6 -5 -1
-9 -18 l-8 -30 -1 37 c0 20 -5 39 -10 42 -5 4 -7 -4 -3 -16 3 -14 2 -19 -6
-14 -7 4 -12 2 -12 -3 0 -15 -30 -14 -31 2 -1 6 -5 -1 -9 -18 l-8 -30 -1 37
c0 20 -5 39 -10 42 -5 4 -7 -4 -3 -16 3 -14 2 -19 -6 -14 -8 5 -12 -1 -12 -15
l0 -22 -19 22 -20 22 -4 -28 c-3 -24 -4 -22 -6 9 0 20 -5 39 -10 42 -5 4 -7
-4 -3 -16 3 -14 2 -19 -6 -14 -8 5 -12 -1 -12 -15 l0 -22 -19 22 -20 22 -4
-28 c-3 -24 -4 -22 -6 9 0 20 -5 39 -10 42 -5 4 -7 -4 -3 -16 3 -14 2 -19 -6
-14 -8 5 -12 -1 -12 -15 l0 -22 -19 22 -20 22 -4 -28 c-3 -24 -4 -22 -6 9 0
20 -5 39 -10 42 -5 4 -7 -4 -3 -16 3 -14 2 -19 -6 -14 -8 5 -12 -1 -12 -15 l0
-22 -19 22 -20 22 -4 -28 c-3 -24 -4 -22 -6 9 0 20 -5 39 -10 42 -5 4 -7 -4
-3 -16 3 -14 2 -19 -6 -14 -8 5 -12 -2 -13 -21 0 -16 -3 -22 -6 -13 -4 8 -12
20 -19 27 -10 11 -13 8 -17 -14 -3 -23 -4 -21 -6 9 0 20 -5 39 -10 42 -5 4 -7
-4 -3 -16z m1079 -20 c-3 -7 -5 -2 -5 12 0 14 2 19 5 13 2 -7 2 -19 0 -25z
m80 0 c-3 -7 -5 -2 -5 12 0 14 2 19 5 13 2 -7 2 -19 0 -25z m-1540 -25 c-3
-10 -5 -4 -5 12 0 17 2 24 5 18 2 -7 2 -21 0 -30z"/>
<path d="M26617 19689 c4 -13 8 -18 11 -10 2 7 -1 18 -6 23 -8 8 -9 4 -5 -13z"/>
<path d="M26698 19688 c2 -10 6 -18 7 -18 1 0 5 8 7 18 3 11 0 19 -7 19 -7 0
-10 -8 -7 -19z"/>
<path d="M26778 19688 c2 -10 6 -18 7 -18 1 0 5 8 7 18 3 11 0 19 -7 19 -7 0
-10 -8 -7 -19z"/>
<path d="M26858 19688 c2 -10 6 -18 7 -18 1 0 5 8 7 18 3 11 0 19 -7 19 -7 0
-10 -8 -7 -19z"/>
<path d="M26938 19688 c2 -10 6 -18 7 -18 1 0 5 8 7 18 3 11 0 19 -7 19 -7 0
-10 -8 -7 -19z"/>
<path d="M27018 19688 c2 -10 6 -18 7 -18 1 0 5 8 7 18 3 11 0 19 -7 19 -7 0
-10 -8 -7 -19z"/>
<path d="M27103 19695 c-3 -9 -3 -18 -1 -21 3 -3 8 4 11 16 6 23 -1 27 -10 5z"/>
<path d="M27183 19695 c-3 -9 -3 -18 -1 -21 3 -3 8 4 11 16 6 23 -1 27 -10 5z"/>
<path d="M27258 19688 c2 -10 6 -18 7 -18 1 0 5 8 7 18 3 11 0 19 -7 19 -7 0
-10 -8 -7 -19z"/>
<path d="M27338 19688 c2 -10 6 -18 7 -18 1 0 5 8 7 18 3 11 0 19 -7 19 -7 0
-10 -8 -7 -19z"/>
<path d="M27418 19688 c2 -10 6 -18 7 -18 1 0 5 8 7 18 3 11 0 19 -7 19 -7 0
-10 -8 -7 -19z"/>
<path d="M25017 19649 c4 -13 8 -18 11 -10 2 7 -1 18 -6 23 -8 8 -9 4 -5 -13z"/>
<path d="M25097 19649 c4 -13 8 -18 11 -10 2 7 -1 18 -6 23 -8 8 -9 4 -5 -13z"/>
<path d="M25177 19649 c4 -13 8 -18 11 -10 2 7 -1 18 -6 23 -8 8 -9 4 -5 -13z"/>
<path d="M25141 19644 c0 -11 3 -14 6 -6 3 7 2 16 -1 19 -3 4 -6 -2 -5 -13z"/>
<path d="M25221 19644 c0 -11 3 -14 6 -6 3 7 2 16 -1 19 -3 4 -6 -2 -5 -13z"/>
<path d="M25301 19644 c0 -11 3 -14 6 -6 3 7 2 16 -1 19 -3 4 -6 -2 -5 -13z"/>
<path d="M20401 19580 c3 -34 -2 -47 -16 -47 -10 0 -12 4 -5 12 7 8 5 12 -5
12 -13 0 -19 -15 -17 -38 1 -3 -5 -6 -12 -6 -6 0 -12 11 -12 23 0 12 4 20 8
18 4 -3 8 1 8 9 0 7 -6 14 -14 14 -8 0 -15 -3 -14 -6 2 -23 -4 -38 -17 -38
-10 0 -12 4 -5 12 7 8 5 12 -5 12 -13 0 -19 -15 -17 -38 1 -3 -5 -6 -12 -6 -6
0 -12 11 -12 23 0 12 4 20 8 18 4 -3 8 1 8 9 0 7 -6 14 -13 14 -11 0 -15 -11
-19 -53 -1 -6 -7 -11 -14 -11 -12 0 -13 14 -2 33 4 6 1 11 -7 11 -13 0 -19
-15 -17 -38 1 -3 -5 -6 -12 -6 -14 0 -16 14 -4 33 4 6 1 11 -7 11 -13 0 -19
-15 -17 -38 1 -3 -5 -6 -12 -6 -14 0 -16 14 -4 33 4 6 1 11 -7 11 -13 0 -19
-15 -17 -38 1 -3 -5 -6 -12 -6 -14 0 -16 14 -4 33 4 6 1 11 -7 11 -13 0 -19
-15 -17 -38 1 -3 -5 -6 -12 -6 -14 0 -16 14 -4 33 4 6 1 11 -7 11 -13 0 -19
-15 -17 -38 1 -3 -5 -6 -13 -6 -8 0 -14 3 -13 6 0 3 0 15 -2 26 l-1 20 -8 -20
c-5 -11 -7 -23 -5 -26 2 -3 -3 -6 -10 -6 -14 0 -16 14 -4 33 4 6 1 11 -7 11
-13 0 -19 -15 -17 -38 1 -3 -5 -6 -13 -6 -8 0 -14 3 -13 6 0 3 0 15 -2 26 l-1
20 -8 -20 c-5 -11 -7 -23 -5 -26 2 -3 -3 -6 -11 -6 -8 0 -14 3 -13 6 0 3 0 15
-2 26 l-1 20 -8 -20 c-5 -11 -7 -23 -5 -26 2 -3 -3 -6 -11 -6 -8 0 -14 3 -13
6 0 3 0 15 -2 26 l-1 20 -8 -20 c-5 -11 -7 -22 -5 -25 1 -3 -13 -6 -31 -6 -18
0 -33 3 -33 6 0 3 0 14 -2 25 l-1 20 -8 -20 c-5 -11 -7 -22 -5 -25 1 -3 -13
-6 -31 -6 -18 0 -33 3 -33 6 0 3 0 14 -2 25 l-1 20 -8 -20 c-5 -11 -7 -22 -5
-25 1 -3 -13 -6 -31 -6 -18 0 -33 3 -33 6 0 3 0 14 -2 25 l-1 20 -8 -20 c-5
-11 -7 -22 -6 -25 2 -3 -102 -5 -230 -5 -167 0 -231 3 -224 11 5 7 4 11 -6 11
-7 0 -14 -3 -13 -6 2 -23 -4 -38 -17 -38 -8 0 -11 5 -7 11 12 19 10 33 -4 33
-7 0 -12 -5 -11 -10 1 -5 -6 -11 -16 -12 -14 -3 -15 0 -8 9 8 9 7 13 -4 13 -7
0 -14 -3 -13 -6 2 -23 -4 -38 -17 -38 -8 0 -11 5 -7 11 12 19 10 33 -4 33 -7
0 -12 -5 -11 -10 1 -5 -6 -11 -16 -12 -14 -3 -15 0 -8 9 8 9 7 13 -4 13 -7 0
-14 -3 -13 -6 2 -23 -4 -38 -17 -38 -8 0 -11 5 -7 11 12 19 10 33 -4 33 -7 0
-12 -5 -11 -10 1 -5 -6 -11 -16 -12 -14 -3 -15 0 -8 9 8 9 7 13 -4 13 -7 0
-14 -3 -13 -6 2 -23 -4 -38 -17 -38 -8 0 -11 5 -7 11 12 19 10 33 -4 33 -7 0
-13 -3 -12 -6 2 -23 -4 -38 -17 -38 -8 0 -11 5 -7 11 12 19 10 33 -4 33 -7 0
-13 -3 -12 -6 3 -29 -5 -37 -35 -37 -21 0 -34 5 -34 13 0 7 5 9 11 5 6 -5 17
-8 25 -8 18 1 23 33 5 33 -7 0 -12 -3 -11 -6 1 -3 -2 -6 -8 -6 -5 0 -9 3 -8 6
1 3 -4 6 -12 6 -8 0 -14 -3 -13 -6 3 -27 -5 -38 -24 -37 -13 0 -22 -4 -21 -10
1 -6 -4 -11 -11 -11 -8 0 -13 7 -11 16 1 9 12 16 25 16 13 0 24 7 25 16 2 9
-3 16 -11 16 -7 0 -12 -3 -11 -6 1 -3 -2 -6 -8 -6 -5 0 -9 3 -8 6 1 3 -4 6
-11 6 -11 0 -14 -11 -18 -53 -1 -6 -7 -11 -14 -11 -7 0 -12 3 -11 6 1 3 -2 6
-8 6 -5 0 -9 -3 -8 -6 1 -3 -4 -6 -11 -6 -8 0 -13 7 -11 16 1 9 12 16 25 16
13 0 24 7 25 16 2 9 -3 16 -11 16 -7 0 -12 -3 -11 -6 1 -3 -2 -6 -8 -6 -5 0
-9 3 -8 6 1 3 -4 6 -11 6 -11 0 -14 -11 -18 -53 -1 -6 -7 -11 -14 -11 -7 0
-12 3 -11 6 1 3 -2 6 -8 6 -5 0 -9 -3 -8 -6 1 -3 -4 -6 -11 -6 -8 0 -13 7 -11
16 1 9 12 16 25 16 13 0 24 7 25 16 2 9 -3 16 -11 16 -7 0 -12 -3 -11 -6 1 -3
-2 -6 -8 -6 -5 0 -9 3 -8 6 1 3 -4 6 -11 6 -11 0 -14 -11 -18 -53 -1 -6 -7
-11 -14 -11 -7 0 -12 3 -11 6 1 3 -2 6 -8 6 -5 0 -9 -3 -8 -6 1 -3 -4 -6 -11
-6 -8 0 -13 7 -11 16 1 9 12 16 25 16 13 0 24 7 25 16 2 9 -3 16 -11 16 -7 0
-12 -3 -11 -6 1 -3 -2 -6 -8 -6 -5 0 -9 3 -8 6 1 3 -4 6 -11 6 -11 0 -14 -11
-18 -53 -1 -6 -7 -11 -14 -11 -7 0 -12 3 -11 6 1 3 -2 6 -8 6 -5 0 -9 -3 -8
-6 1 -3 -4 -6 -11 -6 -8 0 -13 7 -11 16 1 9 12 16 25 16 13 0 24 7 25 16 2 9
-3 16 -11 16 -7 0 -12 -3 -11 -6 1 -3 -2 -6 -8 -6 -5 0 -9 3 -8 6 1 3 -4 6
-11 6 -11 0 -14 -11 -18 -53 -1 -6 -7 -11 -14 -11 -7 0 -12 3 -11 6 1 3 -2 6
-8 6 -5 0 -9 -3 -8 -6 1 -3 -4 -6 -11 -6 -8 0 -13 7 -11 16 1 9 12 16 25 16
13 0 24 7 25 16 2 9 -3 16 -11 16 -7 0 -12 -3 -11 -6 1 -3 -2 -6 -8 -6 -5 0
-9 3 -8 6 1 3 -4 6 -11 6 -11 0 -14 -11 -18 -53 -1 -6 -7 -11 -14 -11 -7 0
-12 3 -11 6 1 3 -2 6 -8 6 -5 0 -9 -3 -8 -6 1 -3 -4 -6 -11 -6 -18 0 -13 32 5
33 8 0 19 -3 25 -8 6 -4 11 -2 11 6 0 7 -10 13 -21 12 -12 -1 -20 4 -19 10 1
6 -4 11 -11 11 -11 0 -14 -11 -18 -53 -1 -6 -7 -11 -14 -11 -7 0 -12 3 -11 6
1 3 -2 6 -8 6 -5 0 -9 -3 -8 -6 1 -3 -4 -6 -11 -6 -18 0 -13 32 5 33 8 0 19
-3 25 -8 6 -4 11 -2 11 6 0 7 -10 13 -21 12 -12 -1 -20 4 -19 10 1 6 -4 11
-11 11 -11 0 -14 -11 -18 -53 -1 -6 -7 -11 -15 -11 -10 0 -10 4 -1 14 9 11 8
13 -3 11 -8 -2 -13 3 -11 10 1 6 -4 11 -10 10 -7 -2 -12 2 -11 8 1 6 -4 11
-11 11 -11 0 -14 -11 -18 -53 -1 -6 -7 -11 -15 -11 -10 0 -10 4 -1 14 9 11 8
13 -3 11 -8 -2 -13 3 -11 10 1 6 -4 11 -10 10 -7 -2 -12 2 -11 8 1 6 -4 11
-11 11 -11 0 -14 -11 -18 -53 -1 -6 -7 -11 -15 -11 -10 0 -10 4 -1 14 9 11 8
13 -3 11 -8 -2 -13 2 -12 8 1 5 -9 10 -23 10 -21 0 -29 -11 -26 -37 1 -3 -6
-6 -13 -6 -11 0 -12 3 -3 14 9 11 8 13 -3 11 -8 -2 -13 2 -12 8 1 5 -9 10 -23
10 -21 0 -29 -11 -26 -37 1 -3 -6 -6 -13 -6 -11 0 -12 3 -3 14 9 11 8 13 -3
11 -8 -2 -13 2 -12 8 1 6 -4 11 -11 11 -7 0 -13 -6 -13 -13 0 -7 3 -11 7 -9 4
2 7 -2 7 -9 0 -7 -6 -13 -13 -13 -7 0 -13 3 -12 6 0 3 0 15 -2 26 l-1 20 -8
-20 c-5 -11 -7 -23 -5 -26 2 -3 -3 -6 -11 -6 -11 0 -12 3 -3 14 9 11 8 13 -3
11 -8 -2 -13 2 -12 8 1 6 -4 11 -12 11 -8 0 -13 -5 -12 -11 1 -5 -11 -10 -28
-10 -16 0 -29 5 -28 10 1 6 -4 11 -12 11 -8 0 -13 -5 -12 -11 1 -5 -11 -10
-28 -10 -16 0 -29 5 -28 10 1 6 -4 11 -12 11 -8 0 -13 -5 -12 -11 1 -5 -11
-10 -28 -10 -16 0 -29 5 -28 10 1 6 -4 11 -12 11 -8 0 -13 -5 -12 -11 1 -6
-12 -11 -30 -10 -18 0 -30 -2 -28 -5 5 -9 288 -7 301 1 6 4 11 2 11 -5 0 -9
-42 -12 -166 -12 -103 1 -165 5 -164 11 1 5 -14 10 -32 10 -19 0 -32 -3 -29
-6 3 -3 15 -5 26 -5 12 0 22 -7 23 -16 2 -9 -3 -16 -11 -16 -7 0 -12 5 -11 11
1 5 -9 11 -23 11 -14 1 -24 6 -23 11 1 6 -4 11 -12 11 -8 0 -14 -3 -13 -6 0
-3 -1 -8 -2 -11 -1 -3 -3 -12 -5 -20 -10 -48 -104 -335 -147 -450 -254 -682
-725 -1445 -1412 -2290 -728 -895 -1752 -1921 -3076 -3081 -239 -209 -715
-618 -855 -734 -66 -54 -150 -126 -187 -158 l-68 -60 0 -1468 0 -1469 4760 0
4760 0 -2 1468 -3 1467 -2652 5 -2651 5 141 100 c401 284 828 607 1137 859
1968 1606 3168 3279 3610 5034 76 304 141 664 144 804 1 26 5 50 9 54 10 11 9
44 -2 44 -6 0 -13 -5 -17 -12 -4 -7 -3 -8 4 -4 7 4 12 1 12 -9 0 -9 -4 -13
-10 -10 -5 3 -10 0 -10 -8 0 -7 -6 -14 -13 -14 -8 0 -14 6 -14 13 0 7 4 11 9
8 4 -3 8 2 8 11 0 9 -4 14 -9 11 -5 -4 -12 0 -15 6 -4 9 -5 8 -5 -2 3 -34 -2
-47 -16 -47 -10 0 -12 4 -5 12 7 8 5 12 -5 12 -14 0 -20 -17 -15 -42 1 -5 -4
-4 -11 2 -15 15 -22 46 -8 37 5 -3 9 2 9 11 0 9 -4 14 -9 11 -5 -4 -12 0 -15
6 -4 9 -5 8 -5 -2 3 -34 -2 -47 -16 -47 -10 0 -12 4 -5 12 7 8 5 12 -5 12 -14
0 -20 -17 -15 -42 1 -5 -4 -4 -11 2 -15 15 -22 46 -8 37 5 -3 9 2 9 11 0 9 -4
14 -9 11 -5 -4 -12 0 -15 6 -4 9 -5 8 -5 -2 3 -34 -2 -47 -16 -47 -10 0 -12 4
-5 12 7 8 5 12 -5 12 -14 0 -20 -17 -15 -42 1 -5 -4 -4 -11 2 -15 15 -22 46
-8 37 5 -3 9 2 9 11 0 9 -4 14 -9 11 -5 -4 -12 0 -15 6 -4 9 -5 8 -5 -2z
m-2445 -93 c1 -8 -4 -14 -10 -14 -7 0 -12 11 -12 24 0 24 18 16 22 -10z m80 0
c1 -8 -4 -14 -10 -14 -7 0 -12 11 -12 24 0 24 18 16 22 -10z m-240 -1 c1 -7
-4 -13 -11 -13 -7 0 -11 7 -10 16 2 9 4 18 4 20 2 8 15 -10 17 -23z m80 0 c1
-7 -4 -13 -11 -13 -7 0 -11 7 -10 16 2 9 4 18 4 20 2 8 15 -10 17 -23z m-659
-21 c0 -8 -4 -12 -9 -9 -5 3 -6 10 -3 15 9 13 12 11 12 -6z"/>
<path d="M19721 19547 c-1 -12 -6 -16 -13 -11 -7 4 -9 3 -5 -1 12 -13 36 -15
44 -3 3 6 1 8 -5 4 -6 -3 -13 2 -15 11 -4 17 -5 17 -6 0z"/>
<path d="M19801 19547 c-1 -12 -6 -16 -13 -11 -7 4 -9 3 -5 -1 12 -13 36 -15
44 -3 3 6 1 8 -5 4 -6 -3 -13 2 -15 11 -4 17 -5 17 -6 0z"/>
<path d="M19166 19528 c3 -5 10 -6 15 -3 13 9 11 12 -6 12 -8 0 -12 -4 -9 -9z"/>
<path d="M19205 19529 c5 -7 52 -6 59 2 3 2 -10 5 -29 5 -18 0 -32 -3 -30 -7z"/>
<path d="M19285 19529 c5 -7 52 -6 59 2 3 2 -10 5 -29 5 -18 0 -32 -3 -30 -7z"/>
<path d="M19365 19529 c5 -7 52 -6 59 2 3 2 -10 5 -29 5 -18 0 -32 -3 -30 -7z"/>
<path d="M19445 19530 c4 -7 132 -7 139 0 2 3 -28 5 -69 5 -40 0 -72 -2 -70
-5z"/>
<path d="M19626 19529 c4 -8 30 -6 38 2 3 3 -5 5 -19 5 -13 0 -22 -3 -19 -7z"/>
</g>
</svg>
